<?xml version="1.0" encoding="utf-8"?>
<svg version="1.1" id="Layer_1" xmlns="http://www.w3.org/2000/svg" xmlns:xlink="http://www.w3.org/1999/xlink" x="0px" y="0px"
	 viewBox="0 0 34 34" style="enable-background:new 0 0 34 34;" xml:space="preserve">
<style type="text/css">
	.st0{fill:#FFFFFF;}
</style>
<path class="st0" d="M0,34l2.38-8.45c-1.53-2.6-2.34-5.55-2.34-8.59C0.04,7.61,7.66,0,17.02,0S34,7.61,34,16.96
	c0,9.35-7.62,16.96-16.98,16.96c-2.92,0-5.77-0.75-8.3-2.16L0,34z M9.17,28.67l0.52,0.32c2.2,1.34,4.74,2.05,7.34,2.05
	c7.77,0,14.1-6.32,14.1-14.08c0-7.77-6.32-14.08-14.1-14.08S2.92,9.19,2.92,16.96c0,2.71,0.77,5.33,2.23,7.6L5.5,25.1l-1.37,4.87
	L9.17,28.67z M9.17,28.67"/>
<path class="st0" d="M12.25,9.07l-1.1-0.06c-0.35-0.02-0.69,0.1-0.95,0.32c-0.53,0.46-1.39,1.36-1.65,2.53
	c-0.39,1.74,0.21,3.87,1.78,6c1.56,2.13,4.48,5.54,9.64,7c1.66,0.47,2.97,0.15,3.98-0.49c0.8-0.51,1.35-1.33,1.55-2.26l0.18-0.82
	c0.06-0.26-0.08-0.53-0.32-0.64l-3.72-1.71c-0.24-0.11-0.53-0.04-0.69,0.17L19.47,21c-0.11,0.14-0.3,0.2-0.47,0.14
	c-1-0.35-4.35-1.75-6.19-5.29c-0.08-0.15-0.06-0.34,0.05-0.47l1.4-1.61c0.14-0.16,0.18-0.4,0.09-0.6l-1.6-3.75
	C12.66,9.21,12.47,9.08,12.25,9.07L12.25,9.07z M12.25,9.07"/>
</svg>
